<svg id="Layer_1" data-name="Layer 1" xmlns="http://www.w3.org/2000/svg" viewBox="0 0 1017 132"><defs><style>.cls-1{fill:#fff;}</style></defs><title>DellTech_Logo_Prm_Wht_rgb</title><path class="cls-1" d="M1015,84.89c0-12.23-6.8-17.66-20.39-20.38s-21.73-4.08-21.73-13.58c0-6.8,5.44-10.87,15-10.87,12.22,0,16.3,5.43,16.3,12.22l1.36,1.36h5.43l1.37-1.36c0-13.58-10.88-19-24.46-19-15,0-23.1,8.15-23.1,17.67,0,10.86,8.15,16.3,21.73,19s20.38,4.08,20.38,15c0,6.79-4.07,12.23-17.66,12.23-12.22,0-17.66-6.8-17.66-15l-1.35-1.36h-5.44l-1.35,1.36c0,12.23,9.5,21.74,25.8,21.74,17.66,0,25.82-8.15,25.82-19M956.58,71.31l1.36-1.37V65.87c0-19-10.87-32.61-29.89-32.61s-29.89,13.59-29.89,32.61v2.72c0,19,9.51,35.32,31.25,35.32,19,0,25.81-12.23,27.17-20.38l-1.36-1.36h-5.43l-1.36,1.36c-2.72,8.15-8.16,13.59-19,13.59-17.66,0-23.1-16.31-23.1-24.46l1.36-1.35Zm-8.15-6.8H907.67l-1.36-1.36c0-9.51,5.44-23.09,21.74-23.09s21.74,13.58,21.74,23.09Zm-59.78,36.68V36l-1.36-1.35h-5.43L880.5,36v65.22l1.36,1.36h5.43Zm0-78.8V14.24l-1.36-1.36h-5.43l-1.36,1.36v8.15l1.36,1.36h5.43ZM837,97.12c-13.59,0-21.74-9.52-21.74-28.53S823.44,40.06,837,40.06s21.73,9.5,21.73,28.53S850.61,97.12,837,97.12M858.76,93c0,17.66-4.07,31.25-20.38,31.25-12.22,0-16.3-5.44-17.66-12.23l-1.35-1.36h-5.44l-1.36,1.36c1.36,10.87,9.51,19,25.81,19,17.67,0,28.53-10.87,28.53-38V36l-1.35-1.35h-4.08L860.12,36l-1.36,8.16H857.4c-2.71-5.43-9.5-10.87-21.74-10.87-19,0-28.53,15-28.53,35.33s9.52,35.32,28.53,35.32c12.24,0,19-5.43,21.74-10.87Zm-88.3-53c13.58,0,23.09,10.87,23.09,28.53S784,97.12,770.46,97.12s-23.1-10.87-23.1-28.53,9.51-28.53,23.1-28.53m0,63.85c17.66,0,31.25-12.23,31.25-35.32s-13.59-35.33-31.25-35.33-31.25,12.23-31.25,35.33,13.59,35.32,31.25,35.32m-40.76-2.72V8.81l-1.36-1.36h-5.43l-1.36,1.36v92.38l1.36,1.36h5.43ZM680.8,40.06c13.58,0,23.09,10.87,23.09,28.53s-9.51,28.53-23.09,28.53-23.1-10.87-23.1-28.53,9.51-28.53,23.1-28.53m0,63.85c17.66,0,31.25-12.23,31.25-35.32S698.46,33.26,680.8,33.26s-31.25,12.23-31.25,35.33,13.59,35.32,31.25,35.32m-39.4-2.72V60.43c0-17.66-9.51-27.17-24.45-27.17-9.52,0-17.67,4.08-21.74,10.87h-1.36L592.49,36l-1.36-1.35h-4.08L585.7,36v65.22l1.35,1.36h5.44l1.36-1.36V64.51c0-15,6.79-24.45,21.73-24.45,10.87,0,17.66,6.79,17.66,20.37v40.76l1.37,1.36H640Zm-69.29,0V60.43c0-17.66-9.51-27.17-24.45-27.17-9.52,0-17.66,4.08-21.74,10.87h-1.36V8.81L523.2,7.45h-5.43l-1.36,1.36v92.38l1.36,1.36h5.43l1.36-1.36V64.51c0-15,6.8-24.45,21.74-24.45,10.87,0,17.66,6.79,17.66,20.37v40.76l1.36,1.36h5.44ZM455.28,68.59c0-19,9.5-28.53,23.09-28.53s19,8.15,20.38,16.29l1.35,1.37h5.44l1.36-1.37c-1.36-13.58-12.23-23.09-28.53-23.09-17.66,0-31.24,10.87-31.24,35.33s13.58,35.32,31.24,35.32c16.3,0,27.17-9.51,28.53-23.1l-1.36-1.36H500.1l-1.35,1.36C497.39,89,492,97.12,478.37,97.12s-23.09-9.52-23.09-28.53m-14.95,2.72,1.36-1.37V65.87c0-19-10.87-32.61-29.9-32.61s-29.88,13.59-29.88,32.61v2.72c0,19,9.51,35.32,31.25,35.32,19,0,25.81-12.23,27.17-20.38L439,82.17h-5.43l-1.36,1.36c-2.72,8.15-8.15,13.59-19,13.59-17.66,0-23.1-16.31-23.1-24.46l1.36-1.35Zm-8.15-6.8H391.42l-1.36-1.36c0-9.51,5.44-23.09,21.73-23.09s21.75,13.58,21.75,23.09ZM395.57,12.88V8.81l-1.36-1.36H323.56L322.2,8.81v4.07l1.36,1.36h29.89l1.36,1.36v85.59l1.36,1.36h5.43l1.36-1.36V15.6l1.36-1.36h29.89Z"/><path class="cls-1" d="M322.2,83.65v18.9H260.85V7.45h21.6v76.2ZM38.55,102.55A47.57,47.57,0,0,0,84.58,67l53.8,42,53.77-42v35.56H253.5V83.65H213.75V7.45h-21.6V43L140.58,83.3l-11.54-9L153.73,55l26.89-21L165.27,22,113.69,62.3l-11.53-9L153.73,13,138.38,1,84.58,43a47.57,47.57,0,0,0-46-35.58H0v95.1ZM21.6,83.65V26.35H38.55c14.33,0,26,12.83,26,28.65S52.88,83.65,38.55,83.65Z"/></svg>